PathFileType	4	(X/Y/Z)	E:\MAC3D_DATA\2020_06_02_vinay\TPose1.trc																																																																
DataRate	CameraRate	NumFrames	NumMarkers	Units	OrigDataRate	OrigDataStartFrame	OrigNumFrames																																																												
1000	200	11	22	mm	200	720	822																																																												
Frame#	Time	RAsis			LAsis			RPsi			LPsi			RThigh1			RThigh2			RThigh3			RKneeOut			RKneeIn			LThigh1			LThigh2			LThigh3			LKneeOut			LKneeIn			MidAsis			MidPsi			MidPelvis			RHJC			LHJC			MidHJC			RKJC			LKJC		
		X1	Y1	Z1	X2	Y2	Z2	X3	Y3	Z3	X4	Y4	Z4	X5	Y5	Z5	X6	Y6	Z6	X7	Y7	Z7	X8	Y8	Z8	X9	Y9	Z9	X10	Y10	Z10	X11	Y11	Z11	X12	Y12	Z12	X13	Y13	Z13	X14	Y14	Z14	X15	Y15	Z15	X16	Y16	Z16	X17	Y17	Z17	X18	Y18	Z18	X19	Y19	Z19	X20	Y20	Z20	X21	Y21	Z21	X22	Y22	Z22
																																																																			
720	3.595	32.9668	972.928	227.608	39.173	972.669	-15.3366	-162.224	1020.12	153.099	-161.609	1020.66	70.3023	-67.8458	742.243	299.558	-154.254	642.403	270.192	-39.5168	660.645	278.209	-113.711	507.545	278.12	-97.2983	492.961	162.731	-15.2007	654.032	-60.4743	-55.9335	747.464	-93.6864	-111.62	650.286	-81.8898	-90.6791	504.309	-70.546	-90.4216	491.996	44.3752	36.07	972.80	106.14	-161.92	1020.39	111.70	-62.92	996.59	108.92	-47.78	904.12	208.68	-45.73	914.20	2.71	-46.76	909.16	105.69	-105.50	500.25	220.43	-90.55	498.15	-13.09
721	3.6	32.9711	972.928	227.624	39.1937	972.667	-15.3177	-162.214	1020.12	153.104	-161.595	1020.66	70.3046	-67.8479	742.247	299.571	-154.254	642.403	270.194	-39.5141	660.648	278.235	-113.712	507.547	278.122	-97.2937	492.964	162.735	-15.1876	654.03	-60.4635	-55.9128	747.465	-93.6803	-111.608	650.288	-81.8861	-90.6734	504.309	-70.5394	-90.4184	491.997	44.384	36.08	972.80	106.15	-161.90	1020.39	111.70	-62.91	996.59	108.93	-47.78	904.12	208.69	-45.71	914.20	2.72	-46.75	909.16	105.71	-105.50	500.26	220.43	-90.55	498.15	-13.08
722	3.605	32.9751	972.929	227.64	39.2141	972.665	-15.2985	-162.205	1020.12	153.109	-161.582	1020.66	70.3074	-67.8498	742.25	299.586	-154.254	642.404	270.198	-39.5132	660.651	278.254	-113.713	507.55	278.124	-97.2893	492.968	162.739	-15.1755	654.028	-60.4524	-55.8928	747.465	-93.6739	-111.597	650.29	-81.8815	-90.6686	504.309	-70.5323	-90.4156	491.998	44.3928	36.09	972.80	106.17	-161.89	1020.39	111.71	-62.90	996.59	108.94	-47.77	904.13	208.70	-45.69	914.20	2.74	-46.73	909.16	105.72	-105.50	500.26	220.43	-90.54	498.15	-13.07
723	3.61	32.9786	972.93	227.657	39.2339	972.663	-15.279	-162.195	1020.12	153.115	-161.57	1020.66	70.3105	-67.8517	742.253	299.6	-154.255	642.404	270.202	-39.514	660.652	278.268	-113.715	507.552	278.127	-97.2854	492.971	162.744	-15.1647	654.026	-60.4408	-55.8736	747.466	-93.6675	-111.587	650.292	-81.8762	-90.6648	504.309	-70.5247	-90.4134	492	44.4016	36.11	972.80	106.19	-161.88	1020.39	111.71	-62.89	996.59	108.95	-47.77	904.13	208.72	-45.68	914.19	2.75	-46.72	909.16	105.73	-105.50	500.26	220.44	-90.54	498.15	-13.06
724	3.615	32.9817	972.931	227.674	39.2532	972.661	-15.2591	-162.187	1020.12	153.122	-161.557	1020.66	70.3142	-67.8533	742.256	299.614	-154.255	642.403	270.207	-39.5164	660.652	278.277	-113.717	507.555	278.13	-97.2823	492.975	162.749	-15.1551	654.024	-60.4288	-55.8551	747.467	-93.6609	-111.578	650.294	-81.87	-90.6618	504.309	-70.5167	-90.4119	492.002	44.4105	36.12	972.80	106.21	-161.87	1020.39	111.72	-62.88	996.59	108.96	-47.77	904.13	208.73	-45.66	914.19	2.77	-46.71	909.16	105.75	-105.50	500.26	220.44	-90.54	498.16	-13.05
725	3.62	32.9842	972.932	227.692	39.2717	972.659	-15.2387	-162.179	1020.12	153.129	-161.545	1020.66	70.3185	-67.8549	742.259	299.629	-154.257	642.403	270.213	-39.5205	660.651	278.281	-113.719	507.559	278.134	-97.2802	492.978	162.754	-15.1466	654.022	-60.4163	-55.8374	747.469	-93.6543	-111.57	650.297	-81.863	-90.6597	504.31	-70.5082	-90.4111	492.003	44.4193	36.13	972.80	106.23	-161.86	1020.39	111.72	-62.87	996.59	108.98	-47.76	904.13	208.74	-45.64	914.19	2.78	-46.70	909.16	105.76	-105.50	500.27	220.44	-90.54	498.16	-13.04
726	3.625	32.9862	972.933	227.71	39.2895	972.657	-15.2178	-162.171	1020.12	153.136	-161.533	1020.66	70.3233	-67.8564	742.261	299.643	-154.259	642.402	270.22	-39.5262	660.649	278.279	-113.722	507.562	278.139	-97.2791	492.981	162.761	-15.1393	654.02	-60.4036	-55.8207	747.47	-93.6475	-111.563	650.299	-81.8551	-90.6584	504.311	-70.4993	-90.4111	492.004	44.4282	36.14	972.80	106.25	-161.85	1020.39	111.73	-62.86	996.59	108.99	-47.76	904.13	208.76	-45.63	914.19	2.80	-46.69	909.16	105.78	-105.50	500.27	220.45	-90.53	498.16	-13.04
727	3.63	32.9875	972.934	227.729	39.3064	972.655	-15.1962	-162.164	1020.12	153.144	-161.522	1020.66	70.3288	-67.858	742.264	299.658	-154.261	642.401	270.228	-39.5336	660.646	278.272	-113.725	507.565	278.145	-97.279	492.984	162.767	-15.133	654.018	-60.3906	-55.8049	747.472	-93.6405	-111.557	650.302	-81.8463	-90.6578	504.312	-70.49	-90.4118	492.005	44.4371	36.15	972.79	106.27	-161.84	1020.39	111.74	-62.85	996.59	109.00	-47.76	904.13	208.77	-45.61	914.19	2.81	-46.68	909.16	105.79	-105.50	500.27	220.46	-90.53	498.16	-13.03
728	3.635	32.9881	972.935	227.749	39.3225	972.654	-15.1741	-162.159	1020.12	153.152	-161.512	1020.65	70.335	-67.8597	742.266	299.673	-154.264	642.401	270.237	-39.5426	660.642	278.261	-113.729	507.569	278.152	-97.28	492.987	162.774	-15.1277	654.017	-60.3776	-55.7903	747.473	-93.6329	-111.552	650.305	-81.8368	-90.6578	504.314	-70.4804	-90.4132	492.006	44.446	36.16	972.79	106.29	-161.84	1020.38	111.74	-62.84	996.59	109.02	-47.75	904.13	208.79	-45.59	914.19	2.83	-46.67	909.16	105.81	-105.50	500.28	220.46	-90.54	498.16	-13.02
729	3.64	32.9881	972.937	227.769	39.3376	972.652	-15.1512	-162.153	1020.12	153.161	-161.502	1020.65	70.3419	-67.8618	742.268	299.688	-154.268	642.401	270.247	-39.5529	660.637	278.246	-113.734	507.573	278.159	-97.2819	492.99	162.782	-15.1234	654.016	-60.3644	-55.777	747.475	-93.6246	-111.549	650.308	-81.8265	-90.6584	504.315	-70.4706	-90.4153	492.007	44.455	36.16	972.79	106.31	-161.83	1020.38	111.75	-62.83	996.59	109.03	-47.75	904.13	208.81	-45.58	914.18	2.85	-46.67	909.16	105.83	-105.51	500.28	220.47	-90.54	498.16	-13.01
730	3.645	32.9874	972.939	227.79	39.3517	972.65	-15.1278	-162.149	1020.13	153.17	-161.493	1020.65	70.3496	-67.8643	742.27	299.702	-154.272	642.4	270.257	-39.5644	660.632	278.23	-113.739	507.576	278.167	-97.2849	492.993	162.791	-15.12	654.015	-60.3511	-55.765	747.476	-93.6153	-111.546	650.311	-81.8155	-90.6595	504.316	-70.4606	-90.418	492.007	44.4641	36.17	972.79	106.33	-161.82	1020.39	111.76	-62.83	996.59	109.05	-47.75	904.13	208.82	-45.57	914.19	2.86	-46.66	909.16	105.84	-105.51	500.28	220.48	-90.54	498.16	-13.00
